<svg width="62" height="63" viewBox="0 0 62 63" fill="none" xmlns="http://www.w3.org/2000/svg">
<g filter="url(#filter0_d_19164_12169)">
<rect x="1" y="1" width="60" height="60" rx="5.55556" fill="white"/>
<path d="M25.6669 41.6667H29.2224V45.2223H25.6669V41.6667Z" fill="black"/>
<path fill-rule="evenodd" clip-rule="evenodd" d="M29.1158 41.7734H25.7736V45.1156H29.1158V41.7734ZM25.6669 41.6667V45.2223H29.2224V41.6667H25.6669Z" fill="white"/>
<path d="M36.3335 23.8889H39.8891V27.4445H36.3335V23.8889Z" fill="black"/>
<path fill-rule="evenodd" clip-rule="evenodd" d="M39.7824 23.9956H36.4402V27.3378H39.7824V23.9956ZM36.3335 23.8889V27.4445H39.8891V23.8889H36.3335Z" fill="white"/>
<path d="M25.6669 16.7778H29.2224V20.3334H25.6669V16.7778Z" fill="black"/>
<path fill-rule="evenodd" clip-rule="evenodd" d="M29.1158 16.8845H25.7736V20.2267H29.1158V16.8845ZM25.6669 16.7778V20.3334H29.2224V16.7778H25.6669Z" fill="white"/>
<path d="M36.3335 20.3334H39.8891V23.8889H36.3335V20.3334Z" fill="black"/>
<path fill-rule="evenodd" clip-rule="evenodd" d="M39.7824 20.4401H36.4402V23.7823H39.7824V20.4401ZM36.3335 20.3334V23.8889H39.8891V20.3334H36.3335Z" fill="white"/>
<path d="M29.2224 16.7778H32.778V20.3334H29.2224V16.7778Z" fill="black"/>
<path fill-rule="evenodd" clip-rule="evenodd" d="M32.6713 16.8845H29.3291V20.2267H32.6713V16.8845ZM29.2224 16.7778V20.3334H32.778V16.7778H29.2224Z" fill="white"/>
<path d="M32.778 16.7778H36.3336L36.3335 20.3334L32.778 20.3334V16.7778Z" fill="black"/>
<path fill-rule="evenodd" clip-rule="evenodd" d="M36.2269 16.8845H32.8847V20.2267H36.2269V16.8845ZM32.778 16.7778V20.3334L36.3335 20.3334L36.3336 16.7778H32.778Z" fill="white"/>
<path d="M36.3336 16.7778H39.8891V20.3334H36.3335L36.3336 16.7778Z" fill="black"/>
<path fill-rule="evenodd" clip-rule="evenodd" d="M39.7824 16.8845H36.4402V20.2267H39.7824V16.8845ZM36.3336 16.7778L36.3335 20.3334H39.8891V16.7778H36.3336Z" fill="white"/>
<path d="M22.1113 16.7778H25.6669V20.3334H22.1113V16.7778Z" fill="black"/>
<path fill-rule="evenodd" clip-rule="evenodd" d="M25.5602 16.8845H22.218V20.2267H25.5602V16.8845ZM22.1113 16.7778V20.3334H25.6669V16.7778H22.1113Z" fill="white"/>
<path d="M36.3335 31.0001H39.8891V34.5556H36.3335V31.0001Z" fill="black"/>
<path fill-rule="evenodd" clip-rule="evenodd" d="M39.7824 31.1067H36.4402V34.4489H39.7824V31.1067ZM36.3335 31.0001V34.5556H39.8891V31.0001H36.3335Z" fill="white"/>
<path d="M36.3335 34.5556H39.8891V38.1112H36.3335V34.5556Z" fill="black"/>
<path fill-rule="evenodd" clip-rule="evenodd" d="M39.7824 34.6623H36.4402V38.0045H39.7824V34.6623ZM36.3335 34.5556V38.1112H39.8891V34.5556H36.3335Z" fill="white"/>
<path d="M36.3335 27.4445H39.8891V31.0001H36.3335V27.4445Z" fill="black"/>
<path fill-rule="evenodd" clip-rule="evenodd" d="M39.7824 27.5512H36.4402V30.8934H39.7824V27.5512ZM36.3335 27.4445V31.0001H39.8891V27.4445H36.3335Z" fill="white"/>
<path d="M29.2224 29.2223H32.778V32.7778H29.2224V29.2223Z" fill="black"/>
<path fill-rule="evenodd" clip-rule="evenodd" d="M32.6713 29.3289H29.3291V32.6712H32.6713V29.3289ZM29.2224 29.2223V32.7778H32.778V29.2223H29.2224Z" fill="white"/>
<path d="M32.778 29.2223H36.3336V32.7778H32.778V29.2223Z" fill="black"/>
<path fill-rule="evenodd" clip-rule="evenodd" d="M36.2269 29.3289H32.8847V32.6712H36.2269V29.3289ZM32.778 29.2223V32.7778H36.3336V29.2223H32.778Z" fill="white"/>
<path d="M36.3335 38.1112H39.8891V41.6667H36.3335V38.1112Z" fill="black"/>
<path fill-rule="evenodd" clip-rule="evenodd" d="M39.7824 38.2178H36.4402V41.5601H39.7824V38.2178ZM36.3335 38.1112V41.6667H39.8891V38.1112H36.3335Z" fill="white"/>
<path d="M29.2224 41.6667H32.778V45.2223H29.2224V41.6667Z" fill="black"/>
<path fill-rule="evenodd" clip-rule="evenodd" d="M32.6713 41.7734H29.3291V45.1156H32.6713V41.7734ZM29.2224 41.6667V45.2223H32.778V41.6667H29.2224Z" fill="white"/>
<path d="M32.778 41.6667H36.3335L36.3336 45.2223H32.778V41.6667Z" fill="black"/>
<path fill-rule="evenodd" clip-rule="evenodd" d="M36.2269 41.7734H32.8847V45.1156H36.2269V41.7734ZM32.778 41.6667V45.2223H36.3336L36.3335 41.6667H32.778Z" fill="white"/>
<path d="M32.778 41.6667H36.3335L36.3336 45.2223H32.778V41.6667Z" fill="black"/>
<path fill-rule="evenodd" clip-rule="evenodd" d="M36.2269 41.7734H32.8847V45.1156H36.2269V41.7734ZM32.778 41.6667V45.2223H36.3336L36.3335 41.6667H32.778Z" fill="white"/>
<path d="M36.3335 41.6667H39.8891V45.2223H36.3336L36.3335 41.6667Z" fill="black"/>
<path fill-rule="evenodd" clip-rule="evenodd" d="M39.7824 41.7734H36.4402V45.1156H39.7824V41.7734ZM36.3335 41.6667L36.3336 45.2223H39.8891V41.6667H36.3335Z" fill="white"/>
<path d="M22.1113 41.6667H25.6669V45.2223H22.1113V41.6667Z" fill="black"/>
<path fill-rule="evenodd" clip-rule="evenodd" d="M25.5602 41.7734H22.218V45.1156H25.5602V41.7734ZM22.1113 41.6667V45.2223H25.6669V41.6667H22.1113Z" fill="white"/>
<path d="M22.1113 20.3334H25.6669L25.6669 23.8889H22.1113V20.3334Z" fill="black"/>
<path fill-rule="evenodd" clip-rule="evenodd" d="M25.5602 20.4401H22.218V23.7823H25.5602V20.4401ZM22.1113 20.3334V23.8889H25.6669L25.6669 20.3334H22.1113Z" fill="white"/>
<path d="M22.1113 38.1112H25.6669L25.6669 41.6667H22.1113V38.1112Z" fill="black"/>
<path fill-rule="evenodd" clip-rule="evenodd" d="M25.5602 38.2178H22.218V41.5601H25.5602V38.2178ZM22.1113 38.1112V41.6667H25.6669L25.6669 38.1112H22.1113Z" fill="white"/>
</g>
<defs>
<filter id="filter0_d_19164_12169" x="-1.49012e-08" y="0.555556" width="62" height="62" filterUnits="userSpaceOnUse" color-interpolation-filters="sRGB">
<feFlood flood-opacity="0" result="BackgroundImageFix"/>
<feColorMatrix in="SourceAlpha" type="matrix" values="0 0 0 0 0 0 0 0 0 0 0 0 0 0 0 0 0 0 127 0" result="hardAlpha"/>
<feMorphology radius="0.222222" operator="dilate" in="SourceAlpha" result="effect1_dropShadow_19164_12169"/>
<feOffset dy="0.555556"/>
<feGaussianBlur stdDeviation="0.388889"/>
<feComposite in2="hardAlpha" operator="out"/>
<feColorMatrix type="matrix" values="0 0 0 0 0 0 0 0 0 0 0 0 0 0 0 0 0 0 0.1 0"/>
<feBlend mode="normal" in2="BackgroundImageFix" result="effect1_dropShadow_19164_12169"/>
<feBlend mode="normal" in="SourceGraphic" in2="effect1_dropShadow_19164_12169" result="shape"/>
</filter>
</defs>
</svg>
